<mxfile host="app.diagrams.net" modified="2023-05-01T18:24:53.281Z" agent="Mozilla/5.0 (Macintosh; Intel Mac OS X 10_15_7) AppleWebKit/537.36 (KHTML, like Gecko) Chrome/110.0.0.0 Safari/537.36 OPR/96.0.0.0" version="21.2.3" etag="MLphlkCJAWMeCp6575OT" type="github">
  <diagram name="Page-1" id="ASHN5kvu7dUaBPQsgdHg">
    <mxGraphModel>
      <root>
        <mxCell id="0" />
        <mxCell id="1" parent="0" />
      </root>
    </mxGraphModel>
  </diagram>
</mxfile>
